<?xml version="1.0" encoding="UTF-8" standalone="no"?><!DOCTYPE svg PUBLIC "-//W3C//DTD SVG 1.1//EN" "http://www.w3.org/Graphics/SVG/1.1/DTD/svg11.dtd"><svg width="100%" height="100%" viewBox="0 0 1280 1280" version="1.1" xmlns="http://www.w3.org/2000/svg" xmlns:xlink="http://www.w3.org/1999/xlink" xml:space="preserve" style="fill-rule:evenodd;clip-rule:evenodd;stroke-linejoin:round;stroke-miterlimit:1.41421;"><rect x="-12.962" y="-17.823" width="1305.92" height="1307.99" style="fill:url(#_Linear1);"/><path d="M634.762,72.599c-3.873,0.497 -7.582,1.871 -10.845,4.016c-131.037,86.02 -261.728,134.554 -393.195,163.463c-9.001,2.065 -16.223,8.827 -18.876,17.672c-52.565,172.198 -49.735,369.515 16.867,543.806c66.604,174.29 198.254,325.726 400.426,400.424c5.704,2.088 11.967,2.088 17.672,0c202.173,-74.698 333.821,-226.134 400.425,-400.424c66.602,-174.291 69.433,-371.608 16.867,-543.806c-2.652,-8.845 -9.875,-15.607 -18.876,-17.672c-131.467,-28.909 -262.158,-77.443 -393.195,-163.463c-5.097,-3.344 -11.221,-4.768 -17.27,-4.016l0,0Zm3.213,55.425c126.699,80.695 253.606,128.928 379.941,158.242c45.077,158.059 41.965,338.655 -18.475,496.815c-61.104,159.901 -178.871,296.173 -361.466,366.687c-182.596,-70.514 -299.961,-206.786 -361.066,-366.687c-60.439,-158.16 -63.952,-338.756 -18.876,-496.815c126.335,-29.314 253.243,-77.547 379.942,-158.242l0,0Z" style="fill:#fff;fill-rule:nonzero;"/><text x="366.12px" y="764.879px" style="font-family:'LemonMilk', 'Lemon/Milk', sans-serif;font-size:450px;fill:#fff;">HC</text><defs><linearGradient id="_Linear1" x1="0" y1="0" x2="1" y2="0" gradientUnits="userSpaceOnUse" gradientTransform="matrix(1.66735e+06,1.66787e+06,-1.66524e+06,1.66999e+06,4218.89,-6375.65)"><stop offset="0" style="stop-color:#673ab7;stop-opacity:1"/><stop offset="1" style="stop-color:#a182d7;stop-opacity:1"/></linearGradient></defs></svg>